<svg height='300px' width='300px'  fill="#000000" xmlns="http://www.w3.org/2000/svg" xmlns:xlink="http://www.w3.org/1999/xlink" version="1.1" x="0px" y="0px" viewBox="0 0 64 64" style="enable-background:new 0 0 64 64;" xml:space="preserve"><style type="text/css">
	.st0{display:none;}
	.st1{display:inline;}
	.st2{fill:none;stroke:#000000;stroke-width:0.1;stroke-miterlimit:10;}
</style><g class="st0"><g class="st1"><rect x="2" y="2" class="st2" width="60" height="60"></rect><line class="st2" x1="32" y1="2" x2="32" y2="62"></line><line class="st2" x1="62" y1="32" x2="2" y2="32"></line><line class="st2" x1="2" y1="2" x2="62" y2="62"></line><rect x="10" y="10" class="st2" width="44" height="44"></rect><line class="st2" x1="62" y1="2" x2="2" y2="62"></line><line class="st2" x1="2" y1="32" x2="32" y2="2"></line><line class="st2" x1="32" y1="2" x2="62" y2="32"></line><line class="st2" x1="62" y1="32" x2="32" y2="62"></line><line class="st2" x1="32" y1="62" x2="2" y2="32"></line><circle class="st2" cx="32" cy="32" r="21"></circle></g></g><path d="M49,21.6v-2l-6-6v-2L33.4,2H9v48h6v6h6v6h34V27.6L49,21.6z M51.6,27H49v-2.6L51.6,27z M45.6,19H43v-2.6L45.6,19z M34,5.4  l5.6,5.6H34V5.4z M11,4h21v9h9v35H11V4z M17,50h26V21h4v33H17V50z M53,60H23v-4h26V29h4V60z"></path><rect x="13" y="8" width="17" height="2"></rect><rect x="13" y="14" width="26" height="2"></rect><rect x="13" y="20" width="26" height="2"></rect><rect x="13" y="26" width="26" height="2"></rect><rect x="13" y="32" width="26" height="2"></rect><rect x="13" y="38" width="26" height="2"></rect></svg>
